<svg width="94" height="94" viewBox="0 0 94 94" fill="none" xmlns="http://www.w3.org/2000/svg">
<rect width="94" height="94" rx="8" fill="#E55E5E"/>
<path d="M67.6335 61.8748C67.2719 64.3745 65.4617 66.536 62.9283 67.4969C61.6869 67.9762 60.3418 68.1218 58.9968 67.9762C57.7048 67.8329 56.4103 67.4476 55.0677 66.7286C53.2068 65.7655 51.3435 64.2782 49.1717 62.0675C52.5849 58.1746 54.6531 54.62 55.4293 51.4483C55.7908 49.9588 55.8439 48.6127 55.6872 47.3629C55.4799 46.1623 55.0147 45.0558 54.2915 44.0949C52.6886 41.9335 49.9985 40.6836 46.9998 40.6836C44.0012 40.6836 41.3111 41.9805 39.7082 44.0949C38.985 45.0558 38.5198 46.1623 38.3125 47.3629C38.1052 48.6127 38.1582 50.0059 38.5704 51.4483C39.3466 54.62 41.4654 58.2239 44.828 62.1145C42.7068 64.3252 40.7953 65.8147 38.932 66.7756C37.587 67.4969 36.2949 67.8821 35.0029 68.0255C33.6699 68.1643 32.3225 67.9986 31.0739 67.5462C28.5404 66.5853 26.7302 64.4216 26.3686 61.9241C26.2143 60.7236 26.318 59.523 26.8338 58.1769C26.9881 57.6953 27.2484 57.216 27.5064 56.6403C27.8679 55.8721 28.2825 55.0545 28.6947 54.237L28.7478 54.1406C32.3152 46.9798 36.1431 39.6757 40.1252 32.5642L40.2795 32.2752C40.6941 31.5562 41.1062 30.7857 41.5208 30.0645C41.9354 29.2962 42.4007 28.575 42.9695 27.9501C44.0567 26.7965 45.5029 26.1716 47.1059 26.1716C48.7089 26.1716 50.1576 26.7965 51.2423 27.9501C51.8112 28.575 52.2764 29.2962 52.691 30.0645C53.1056 30.7857 53.5178 31.554 53.9324 32.273L54.089 32.5619C58.0181 39.7205 61.846 47.0246 65.4135 54.1854V54.2325C65.8281 55.0007 66.1896 55.8676 66.6018 56.6358C66.8597 57.2137 67.1201 57.6931 67.2743 58.1724C67.6865 59.4245 67.8408 60.625 67.6335 61.8748V61.8748ZM46.9998 59.6148C44.2085 56.3469 42.3983 53.2716 41.7764 50.6778C41.5184 49.5713 41.4654 48.6105 41.6221 47.7459C41.7257 46.9776 42.0367 46.3034 42.4489 45.7278C43.4324 44.4309 45.0859 43.6133 46.9998 43.6133C48.9138 43.6133 50.6204 44.3839 51.5508 45.7278C51.9654 46.3056 52.274 46.9776 52.3776 47.7459C52.5319 48.6105 52.4813 49.6206 52.2233 50.6778C51.6039 53.2245 49.7936 56.2999 46.9998 59.6148V59.6148ZM70.3236 57.1174C70.0657 56.5418 69.8053 55.9168 69.5474 55.3882C69.1328 54.5237 68.7206 53.7061 68.3566 52.9378L68.306 52.8908C64.7385 45.683 60.9107 38.3788 56.878 31.171L56.7237 30.882C56.3091 30.1608 55.8969 29.3925 55.4823 28.6243C54.9641 27.7597 54.4482 26.8458 53.6214 25.9812C51.9654 24.0572 49.5863 23 47.0529 23C44.4664 23 42.1403 24.0572 40.4313 25.8827C39.6551 26.7473 39.0863 27.6611 38.5704 28.5257C38.1558 29.294 37.7436 30.0622 37.329 30.7835L37.1748 31.0702C33.1927 38.278 29.3142 45.5822 25.7467 52.79L25.6961 52.8863C25.3345 53.6546 24.9199 54.4721 24.5053 55.3367C24.2281 55.9056 23.9702 56.4835 23.7291 57.0659C23.0566 58.8443 22.8493 60.5265 23.1072 62.2556C23.6761 65.8595 26.2626 68.8878 29.8301 70.2317C31.1751 70.7603 32.5708 71 34.0195 71C34.4341 71 34.9499 70.953 35.3645 70.9037C37.0711 70.7111 38.8283 70.1847 40.535 69.2708C42.6562 68.1666 44.6713 66.5808 46.9468 64.2737C49.2223 66.5808 51.2905 68.1666 53.3587 69.2708C55.0653 70.1847 56.8225 70.7111 58.5291 70.9037C58.9437 70.953 59.4596 71 59.8742 71C61.3229 71 62.7692 70.7603 64.0636 70.2317C67.6841 68.8856 70.2175 65.8103 70.7864 62.2556C71.201 60.5757 70.9937 58.8958 70.3236 57.1174V57.1174Z" fill="white"/>
</svg>
